<mxfile modified="2022-05-20T02:24:23.419Z" host="app.diagrams.net" agent="5.0 (Windows NT 10.0; Win64; x64) AppleWebKit/537.36 (KHTML, like Gecko) Chrome/101.0.4951.54 Safari/537.36" etag="pl0QtiX2yco2sQdGkZnQ" compressed="false" version="18.0.8" type="google">
  <diagram id="6RzGIhMb2w_ERL1cpRkA" name="Integration/System Logical Module/API/Resource URLs/Members">
    <mxGraphModel grid="1" page="1" gridSize="10" guides="1" tooltips="1" connect="1" arrows="1" fold="1" pageScale="1" pageWidth="850" pageHeight="1100" math="0" shadow="0">
      <root>
        <mxCell id="lsg9KdUL1sTPyUbrEf8c-0" />
        <mxCell id="lsg9KdUL1sTPyUbrEf8c-1" value="Diagram" parent="lsg9KdUL1sTPyUbrEf8c-0" />
        <mxCell id="lsg9KdUL1sTPyUbrEf8c-3" value="Groups/{uuid}/Members" style="text;html=1;strokeColor=none;fillColor=none;align=left;verticalAlign=middle;whiteSpace=wrap;rounded=0;dashed=1;fontSize=12;fontFamily=Courier New;" vertex="1" parent="lsg9KdUL1sTPyUbrEf8c-1">
          <mxGeometry x="160" y="340" width="200" height="20" as="geometry" />
        </mxCell>
        <mxCell id="lsg9KdUL1sTPyUbrEf8c-4" value="List Members of&amp;nbsp; Group {uuid}&amp;nbsp;" style="text;html=1;strokeColor=none;fillColor=none;align=left;verticalAlign=middle;whiteSpace=wrap;rounded=0;dashed=1;fontFamily=Helvetica;fontSize=12;" vertex="1" parent="lsg9KdUL1sTPyUbrEf8c-1">
          <mxGeometry x="400" y="340" width="320" height="20" as="geometry" />
        </mxCell>
        <mxCell id="lsg9KdUL1sTPyUbrEf8c-5" value="List Members" style="text;html=1;strokeColor=none;fillColor=none;align=left;verticalAlign=middle;whiteSpace=wrap;rounded=0;dashed=1;fontFamily=Helvetica;fontSize=12;" vertex="1" parent="lsg9KdUL1sTPyUbrEf8c-1">
          <mxGeometry x="400" y="280" width="320" height="20" as="geometry" />
        </mxCell>
        <mxCell id="lsg9KdUL1sTPyUbrEf8c-6" value="Members" style="text;html=1;strokeColor=none;fillColor=none;align=left;verticalAlign=middle;whiteSpace=wrap;rounded=0;dashed=1;fontSize=12;fontFamily=Courier New;" vertex="1" parent="lsg9KdUL1sTPyUbrEf8c-1">
          <mxGeometry x="160" y="280" width="200" height="20" as="geometry" />
        </mxCell>
        <mxCell id="lsg9KdUL1sTPyUbrEf8c-7" value="Organisations/{uuid}/Members" style="text;html=1;strokeColor=none;fillColor=none;align=left;verticalAlign=middle;whiteSpace=wrap;rounded=0;dashed=1;fontSize=12;fontFamily=Courier New;" vertex="1" parent="lsg9KdUL1sTPyUbrEf8c-1">
          <mxGeometry x="160" y="360" width="200" height="20" as="geometry" />
        </mxCell>
        <mxCell id="lsg9KdUL1sTPyUbrEf8c-9" value="List Members of&amp;nbsp; Organisation {uuid}&amp;nbsp;" style="text;html=1;strokeColor=none;fillColor=none;align=left;verticalAlign=middle;whiteSpace=wrap;rounded=0;dashed=1;fontFamily=Helvetica;fontSize=12;" vertex="1" parent="lsg9KdUL1sTPyUbrEf8c-1">
          <mxGeometry x="400" y="360" width="320" height="20" as="geometry" />
        </mxCell>
        <mxCell id="lsg9KdUL1sTPyUbrEf8c-10" value="Members/{uuid}" style="text;html=1;strokeColor=none;fillColor=none;align=left;verticalAlign=middle;whiteSpace=wrap;rounded=0;dashed=1;fontSize=12;fontFamily=Courier New;" vertex="1" parent="lsg9KdUL1sTPyUbrEf8c-1">
          <mxGeometry x="160" y="440" width="200" height="20" as="geometry" />
        </mxCell>
        <mxCell id="lsg9KdUL1sTPyUbrEf8c-11" value="View Member {uuid}" style="text;html=1;strokeColor=none;fillColor=none;align=left;verticalAlign=middle;whiteSpace=wrap;rounded=0;dashed=1;fontFamily=Helvetica;fontSize=12;" vertex="1" parent="lsg9KdUL1sTPyUbrEf8c-1">
          <mxGeometry x="400" y="440" width="320" height="20" as="geometry" />
        </mxCell>
        <mxCell id="lsg9KdUL1sTPyUbrEf8c-13" value="Tenants/{uuid}/Members" style="text;html=1;strokeColor=none;fillColor=none;align=left;verticalAlign=middle;whiteSpace=wrap;rounded=0;dashed=1;fontSize=12;fontFamily=Courier New;" vertex="1" parent="lsg9KdUL1sTPyUbrEf8c-1">
          <mxGeometry x="160" y="380" width="200" height="20" as="geometry" />
        </mxCell>
        <mxCell id="lsg9KdUL1sTPyUbrEf8c-14" value="List Members of&amp;nbsp; Tenants {uuid}&amp;nbsp;" style="text;html=1;strokeColor=none;fillColor=none;align=left;verticalAlign=middle;whiteSpace=wrap;rounded=0;dashed=1;fontFamily=Helvetica;fontSize=12;" vertex="1" parent="lsg9KdUL1sTPyUbrEf8c-1">
          <mxGeometry x="400" y="380" width="320" height="20" as="geometry" />
        </mxCell>
        <mxCell id="lsg9KdUL1sTPyUbrEf8c-15" value="GET" style="text;html=1;strokeColor=none;fillColor=none;align=left;verticalAlign=middle;whiteSpace=wrap;rounded=0;dashed=1;fontSize=12;fontFamily=Courier New;" vertex="1" parent="lsg9KdUL1sTPyUbrEf8c-1">
          <mxGeometry x="120" y="280" width="40" height="20" as="geometry" />
        </mxCell>
        <mxCell id="lsg9KdUL1sTPyUbrEf8c-16" value="GET" style="text;html=1;strokeColor=none;fillColor=none;align=left;verticalAlign=middle;whiteSpace=wrap;rounded=0;dashed=1;fontSize=12;fontFamily=Courier New;" vertex="1" parent="lsg9KdUL1sTPyUbrEf8c-1">
          <mxGeometry x="120" y="340" width="40" height="20" as="geometry" />
        </mxCell>
        <mxCell id="lsg9KdUL1sTPyUbrEf8c-17" value="GET" style="text;html=1;strokeColor=none;fillColor=none;align=left;verticalAlign=middle;whiteSpace=wrap;rounded=0;dashed=1;fontSize=12;fontFamily=Courier New;" vertex="1" parent="lsg9KdUL1sTPyUbrEf8c-1">
          <mxGeometry x="120" y="360" width="40" height="20" as="geometry" />
        </mxCell>
        <mxCell id="lsg9KdUL1sTPyUbrEf8c-18" value="GET" style="text;html=1;strokeColor=none;fillColor=none;align=left;verticalAlign=middle;whiteSpace=wrap;rounded=0;dashed=1;fontSize=12;fontFamily=Courier New;" vertex="1" parent="lsg9KdUL1sTPyUbrEf8c-1">
          <mxGeometry x="120" y="380" width="40" height="20" as="geometry" />
        </mxCell>
        <mxCell id="lsg9KdUL1sTPyUbrEf8c-19" value="GET" style="text;html=1;strokeColor=none;fillColor=none;align=left;verticalAlign=middle;whiteSpace=wrap;rounded=0;dashed=1;fontSize=12;fontFamily=Courier New;" vertex="1" parent="lsg9KdUL1sTPyUbrEf8c-1">
          <mxGeometry x="120" y="440" width="40" height="20" as="geometry" />
        </mxCell>
        <mxCell id="lsg9KdUL1sTPyUbrEf8c-20" value="POST" style="text;html=1;strokeColor=none;fillColor=none;align=left;verticalAlign=middle;whiteSpace=wrap;rounded=0;dashed=1;fontSize=12;fontFamily=Courier New;" vertex="1" parent="lsg9KdUL1sTPyUbrEf8c-1">
          <mxGeometry x="120" y="480" width="40" height="20" as="geometry" />
        </mxCell>
        <mxCell id="lsg9KdUL1sTPyUbrEf8c-22" value="Members" style="text;html=1;strokeColor=none;fillColor=none;align=left;verticalAlign=middle;whiteSpace=wrap;rounded=0;dashed=1;fontSize=12;fontFamily=Courier New;" vertex="1" parent="lsg9KdUL1sTPyUbrEf8c-1">
          <mxGeometry x="160" y="480" width="200" height="20" as="geometry" />
        </mxCell>
        <mxCell id="lsg9KdUL1sTPyUbrEf8c-23" value="POST" style="text;html=1;strokeColor=none;fillColor=none;align=left;verticalAlign=middle;whiteSpace=wrap;rounded=0;dashed=1;fontSize=12;fontFamily=Courier New;" vertex="1" parent="lsg9KdUL1sTPyUbrEf8c-1">
          <mxGeometry x="120" y="500" width="40" height="20" as="geometry" />
        </mxCell>
        <mxCell id="lsg9KdUL1sTPyUbrEf8c-25" value="Members(&#39;{uuid}&#39;)" style="text;html=1;strokeColor=none;fillColor=none;align=left;verticalAlign=middle;whiteSpace=wrap;rounded=0;dashed=1;fontSize=12;fontFamily=Courier New;" vertex="1" parent="lsg9KdUL1sTPyUbrEf8c-1">
          <mxGeometry x="160" y="500" width="200" height="20" as="geometry" />
        </mxCell>
        <mxCell id="lsg9KdUL1sTPyUbrEf8c-26" value="Create Member, server side generated Id. &lt;b style=&quot;font-size: 11px;&quot;&gt;&lt;font color=&quot;#cc0000&quot; style=&quot;font-size: 11px;&quot;&gt;&lt;u style=&quot;font-size: 11px;&quot;&gt;NOT&lt;/u&gt;&lt;/font&gt; &lt;/b&gt;recommended." style="text;html=1;strokeColor=none;fillColor=none;align=left;verticalAlign=middle;whiteSpace=wrap;rounded=0;dashed=1;fontFamily=Helvetica;fontSize=11;" vertex="1" parent="lsg9KdUL1sTPyUbrEf8c-1">
          <mxGeometry x="400" y="480" width="320" height="20" as="geometry" />
        </mxCell>
        <mxCell id="lsg9KdUL1sTPyUbrEf8c-27" value="Create Member, client side generated UUID. &lt;b style=&quot;font-size: 11px;&quot;&gt;&lt;font color=&quot;#009900&quot; style=&quot;font-size: 11px;&quot;&gt;RECOMMNEDED&lt;/font&gt;&lt;/b&gt;." style="text;html=1;strokeColor=none;fillColor=none;align=left;verticalAlign=middle;whiteSpace=wrap;rounded=0;dashed=1;fontFamily=Helvetica;fontSize=11;" vertex="1" parent="lsg9KdUL1sTPyUbrEf8c-1">
          <mxGeometry x="400" y="500" width="320" height="20" as="geometry" />
        </mxCell>
        <mxCell id="lsg9KdUL1sTPyUbrEf8c-29" value="PUT" style="text;html=1;strokeColor=none;fillColor=none;align=left;verticalAlign=middle;whiteSpace=wrap;rounded=0;dashed=1;fontSize=12;fontFamily=Courier New;" vertex="1" parent="lsg9KdUL1sTPyUbrEf8c-1">
          <mxGeometry x="120" y="460" width="40" height="20" as="geometry" />
        </mxCell>
        <mxCell id="lsg9KdUL1sTPyUbrEf8c-30" value="Members(&#39;{uuid}&#39;)" style="text;html=1;strokeColor=none;fillColor=none;align=left;verticalAlign=middle;whiteSpace=wrap;rounded=0;dashed=1;fontSize=12;fontFamily=Courier New;" vertex="1" parent="lsg9KdUL1sTPyUbrEf8c-1">
          <mxGeometry x="160" y="460" width="200" height="20" as="geometry" />
        </mxCell>
        <mxCell id="lsg9KdUL1sTPyUbrEf8c-31" value="Create Member, client side generated UUID." style="text;html=1;strokeColor=none;fillColor=none;align=left;verticalAlign=middle;whiteSpace=wrap;rounded=0;dashed=1;fontFamily=Helvetica;fontSize=12;" vertex="1" parent="lsg9KdUL1sTPyUbrEf8c-1">
          <mxGeometry x="400" y="460" width="320" height="20" as="geometry" />
        </mxCell>
        <mxCell id="lsg9KdUL1sTPyUbrEf8c-32" value="DELETE" style="text;html=1;strokeColor=none;fillColor=none;align=left;verticalAlign=middle;whiteSpace=wrap;rounded=0;dashed=1;fontSize=10;fontFamily=Courier New;" vertex="1" parent="lsg9KdUL1sTPyUbrEf8c-1">
          <mxGeometry x="120" y="520" width="40" height="20" as="geometry" />
        </mxCell>
        <mxCell id="lsg9KdUL1sTPyUbrEf8c-34" value="Members(&#39;{uuid}&#39;)" style="text;html=1;strokeColor=none;fillColor=none;align=left;verticalAlign=middle;whiteSpace=wrap;rounded=0;dashed=1;fontSize=12;fontFamily=Courier New;" vertex="1" parent="lsg9KdUL1sTPyUbrEf8c-1">
          <mxGeometry x="160" y="520" width="200" height="20" as="geometry" />
        </mxCell>
        <mxCell id="lsg9KdUL1sTPyUbrEf8c-35" value="Delete Member {uuid}" style="text;html=1;strokeColor=none;fillColor=none;align=left;verticalAlign=middle;whiteSpace=wrap;rounded=0;dashed=1;fontFamily=Helvetica;fontSize=12;" vertex="1" parent="lsg9KdUL1sTPyUbrEf8c-1">
          <mxGeometry x="400" y="520" width="320" height="20" as="geometry" />
        </mxCell>
        <mxCell id="lsg9KdUL1sTPyUbrEf8c-84" value="List Members, page 3, using ODATA standard filter arguments." style="text;html=1;strokeColor=none;fillColor=none;align=left;verticalAlign=middle;whiteSpace=wrap;rounded=0;dashed=1;fontFamily=Helvetica;fontSize=11;" vertex="1" parent="lsg9KdUL1sTPyUbrEf8c-1">
          <mxGeometry x="400" y="320" width="320" height="20" as="geometry" />
        </mxCell>
        <mxCell id="lsg9KdUL1sTPyUbrEf8c-85" value="Members?$top=80&amp;amp;$skip=60" style="text;html=1;strokeColor=none;fillColor=none;align=left;verticalAlign=middle;whiteSpace=wrap;rounded=0;dashed=1;fontSize=12;fontFamily=Courier New;" vertex="1" parent="lsg9KdUL1sTPyUbrEf8c-1">
          <mxGeometry x="160" y="320" width="200" height="20" as="geometry" />
        </mxCell>
        <mxCell id="lsg9KdUL1sTPyUbrEf8c-86" value="GET" style="text;html=1;strokeColor=none;fillColor=none;align=left;verticalAlign=middle;whiteSpace=wrap;rounded=0;dashed=1;fontSize=12;fontFamily=Courier New;" vertex="1" parent="lsg9KdUL1sTPyUbrEf8c-1">
          <mxGeometry x="120" y="320" width="40" height="20" as="geometry" />
        </mxCell>
        <mxCell id="lsg9KdUL1sTPyUbrEf8c-87" value="Count Members, using ODATA standard filter arguments." style="text;html=1;strokeColor=none;fillColor=none;align=left;verticalAlign=middle;whiteSpace=wrap;rounded=0;dashed=1;fontFamily=Helvetica;fontSize=12;" vertex="1" parent="lsg9KdUL1sTPyUbrEf8c-1">
          <mxGeometry x="400" y="300" width="320" height="20" as="geometry" />
        </mxCell>
        <mxCell id="lsg9KdUL1sTPyUbrEf8c-88" value="Members?$count=true" style="text;html=1;strokeColor=none;fillColor=none;align=left;verticalAlign=middle;whiteSpace=wrap;rounded=0;dashed=1;fontSize=12;fontFamily=Courier New;" vertex="1" parent="lsg9KdUL1sTPyUbrEf8c-1">
          <mxGeometry x="160" y="300" width="200" height="20" as="geometry" />
        </mxCell>
        <mxCell id="lsg9KdUL1sTPyUbrEf8c-89" value="GET" style="text;html=1;strokeColor=none;fillColor=none;align=left;verticalAlign=middle;whiteSpace=wrap;rounded=0;dashed=1;fontSize=12;fontFamily=Courier New;" vertex="1" parent="lsg9KdUL1sTPyUbrEf8c-1">
          <mxGeometry x="120" y="300" width="40" height="20" as="geometry" />
        </mxCell>
        <mxCell id="IULtfkTztdsTjsatVg1Q-8" value="GET" style="text;html=1;strokeColor=none;fillColor=none;align=left;verticalAlign=middle;whiteSpace=wrap;rounded=0;dashed=1;fontSize=12;fontFamily=Courier New;" vertex="1" parent="lsg9KdUL1sTPyUbrEf8c-1">
          <mxGeometry x="120" y="400" width="40" height="20" as="geometry" />
        </mxCell>
        <mxCell id="IULtfkTztdsTjsatVg1Q-9" value="List Members that meet custom search criteria." style="text;html=1;strokeColor=none;fillColor=none;align=left;verticalAlign=middle;whiteSpace=wrap;rounded=0;dashed=1;fontFamily=Helvetica;fontSize=12;" vertex="1" parent="lsg9KdUL1sTPyUbrEf8c-1">
          <mxGeometry x="400" y="400" width="320" height="20" as="geometry" />
        </mxCell>
        <mxCell id="IULtfkTztdsTjsatVg1Q-10" value="Members?$search=xyz" style="text;html=1;strokeColor=none;fillColor=none;align=left;verticalAlign=middle;whiteSpace=wrap;rounded=0;dashed=1;fontSize=12;fontFamily=Courier New;" vertex="1" parent="lsg9KdUL1sTPyUbrEf8c-1">
          <mxGeometry x="160" y="400" width="200" height="20" as="geometry" />
        </mxCell>
        <mxCell id="fvQ38aY25MgZbW_w7xq4-44" value="Description" style="text;html=1;strokeColor=none;fillColor=#f5f5f5;align=left;verticalAlign=middle;whiteSpace=wrap;rounded=0;fontSize=12;fontFamily=Helvetica;fontColor=#333333;fontStyle=0" vertex="1" parent="lsg9KdUL1sTPyUbrEf8c-1">
          <mxGeometry x="400" y="200" width="320" height="20" as="geometry" />
        </mxCell>
        <mxCell id="fvQ38aY25MgZbW_w7xq4-45" value="URL" style="text;html=1;strokeColor=none;fillColor=#f5f5f5;align=left;verticalAlign=middle;whiteSpace=wrap;rounded=0;fontSize=12;fontFamily=Helvetica;fontColor=#333333;fontStyle=0" vertex="1" parent="lsg9KdUL1sTPyUbrEf8c-1">
          <mxGeometry x="160" y="200" width="230" height="20" as="geometry" />
        </mxCell>
        <mxCell id="fvQ38aY25MgZbW_w7xq4-46" value="&lt;font style=&quot;font-size: 10px;&quot;&gt;VERB&lt;/font&gt;" style="text;html=1;strokeColor=none;fillColor=#f5f5f5;align=left;verticalAlign=middle;whiteSpace=wrap;rounded=0;fontSize=10;fontFamily=Helvetica;fontColor=#333333;fontStyle=0" vertex="1" parent="lsg9KdUL1sTPyUbrEf8c-1">
          <mxGeometry x="120" y="200" width="30" height="20" as="geometry" />
        </mxCell>
        <mxCell id="fvQ38aY25MgZbW_w7xq4-47" value="&lt;font style=&quot;font-size: 9px&quot;&gt;&lt;span style=&quot;font-size: 10px&quot;&gt;SummaryItems&lt;/span&gt;?$search=Organisation,abc:xyz&lt;/font&gt;" style="text;html=1;strokeColor=none;fillColor=none;align=left;verticalAlign=middle;whiteSpace=wrap;rounded=0;dashed=1;fontSize=9;fontFamily=Courier New;" vertex="1" parent="lsg9KdUL1sTPyUbrEf8c-1">
          <mxGeometry x="160" y="240" width="250" height="20" as="geometry" />
        </mxCell>
        <mxCell id="fvQ38aY25MgZbW_w7xq4-48" value="GET" style="text;html=1;strokeColor=none;fillColor=none;align=left;verticalAlign=middle;whiteSpace=wrap;rounded=0;dashed=1;fontSize=12;fontFamily=Courier New;" vertex="1" parent="lsg9KdUL1sTPyUbrEf8c-1">
          <mxGeometry x="120" y="240" width="40" height="20" as="geometry" />
        </mxCell>
        <mxCell id="fvQ38aY25MgZbW_w7xq4-49" value="&lt;font style=&quot;font-size: 10px&quot;&gt;SummaryItems?$search=Organisation:xyz&lt;/font&gt;" style="text;html=1;strokeColor=none;fillColor=none;align=left;verticalAlign=middle;whiteSpace=wrap;rounded=0;dashed=1;fontSize=10;fontFamily=Courier New;" vertex="1" parent="lsg9KdUL1sTPyUbrEf8c-1">
          <mxGeometry x="160" y="220" width="240" height="20" as="geometry" />
        </mxCell>
        <mxCell id="fvQ38aY25MgZbW_w7xq4-50" value="GET" style="text;html=1;strokeColor=none;fillColor=none;align=left;verticalAlign=middle;whiteSpace=wrap;rounded=0;dashed=1;fontSize=12;fontFamily=Courier New;" vertex="1" parent="lsg9KdUL1sTPyUbrEf8c-1">
          <mxGeometry x="120" y="220" width="40" height="20" as="geometry" />
        </mxCell>
        <mxCell id="fvQ38aY25MgZbW_w7xq4-51" value="List SummaryItems of type Member custom matching xyz" style="text;html=1;strokeColor=none;fillColor=none;align=left;verticalAlign=middle;whiteSpace=wrap;rounded=0;dashed=1;fontFamily=Helvetica;fontSize=12;" vertex="1" parent="lsg9KdUL1sTPyUbrEf8c-1">
          <mxGeometry x="400" y="220" width="320" height="20" as="geometry" />
        </mxCell>
        <mxCell id="fvQ38aY25MgZbW_w7xq4-52" value="List SummaryItems of type Member &amp;amp; abc custom matching xyz" style="text;html=1;strokeColor=none;fillColor=none;align=left;verticalAlign=middle;whiteSpace=wrap;rounded=0;dashed=1;fontFamily=Helvetica;fontSize=11;" vertex="1" parent="lsg9KdUL1sTPyUbrEf8c-1">
          <mxGeometry x="400" y="240" width="320" height="20" as="geometry" />
        </mxCell>
        <mxCell id="K-Db8S2C2Oty2I84vT2f-0" value="Context/Legend" parent="lsg9KdUL1sTPyUbrEf8c-0" />
        <mxCell id="K-Db8S2C2Oty2I84vT2f-1" value="Title/Diagram" parent="lsg9KdUL1sTPyUbrEf8c-0" />
        <mxCell id="w30h2EbXbCm5IrgOGZgG-0" value="&lt;font style=&quot;font-size: 12px ; font-weight: normal&quot;&gt;&lt;i&gt;Diagram: Base System Logical Module -&amp;nbsp;&lt;/i&gt;&lt;i&gt;Interoperability&amp;nbsp;&lt;/i&gt;&lt;i&gt;- APIs - Members&lt;/i&gt;&lt;/font&gt;" style="text;strokeColor=none;fillColor=none;html=1;fontSize=12;fontStyle=1;verticalAlign=middle;align=left;shadow=0;glass=0;comic=0;opacity=30;fontColor=#808080;" vertex="1" parent="K-Db8S2C2Oty2I84vT2f-1">
          <mxGeometry x="120" y="560" width="560" height="20" as="geometry" />
        </mxCell>
        <mxCell id="K-Db8S2C2Oty2I84vT2f-2" value="Title/Page" visible="0" parent="lsg9KdUL1sTPyUbrEf8c-0" />
        <mxCell id="4sZDRv0H_RfNsuEeig3Z-0" value="" style="group;fontSize=12;" vertex="1" connectable="0" parent="K-Db8S2C2Oty2I84vT2f-2">
          <mxGeometry x="120" y="120" width="600" height="45" as="geometry" />
        </mxCell>
        <mxCell id="4sZDRv0H_RfNsuEeig3Z-1" value="&lt;font style=&quot;font-size: 12px&quot;&gt;Base Logical Module - Interoperability&amp;nbsp;- APIs - Members&lt;/font&gt;" style="text;strokeColor=none;fillColor=none;html=1;fontSize=12;fontStyle=1;verticalAlign=middle;align=left;shadow=0;glass=0;comic=0;opacity=30;fontColor=#808080;" vertex="1" parent="4sZDRv0H_RfNsuEeig3Z-0">
          <mxGeometry y="20" width="600" height="20" as="geometry" />
        </mxCell>
        <mxCell id="4sZDRv0H_RfNsuEeig3Z-2" value="" style="line;strokeWidth=2;html=1;shadow=0;glass=0;comic=0;fillColor=none;fontSize=10;fontColor=#CCCCCC;labelBackgroundColor=none;strokeColor=#CCCCCC;" vertex="1" parent="4sZDRv0H_RfNsuEeig3Z-0">
          <mxGeometry y="35" width="600" height="10" as="geometry" />
        </mxCell>
        <mxCell id="K-Db8S2C2Oty2I84vT2f-3" value="About" parent="lsg9KdUL1sTPyUbrEf8c-0" />
      </root>
    </mxGraphModel>
  </diagram>
</mxfile>
